<svg width="44" height="44" viewBox="0 0 44 44" fill="none" xmlns="http://www.w3.org/2000/svg">
<path d="M26.7063 8.97559H18.5889V10.7068H26.7063V8.97559Z" fill="#FFD600"/>
<path d="M18.5882 8.97551V10.7067H4.7041V6.08057H40.6014V10.7067H26.7056V8.97551H18.5882Z" fill="#D96EF3"/>
<path d="M28.4429 19.3975C29.7225 19.3975 30.7589 20.4339 30.7589 21.7076C30.7589 22.9872 29.7225 24.0236 28.4429 24.0236C27.1633 24.0236 26.127 22.9872 26.127 21.7076C26.127 20.4339 27.1633 19.3975 28.4429 19.3975Z" fill="#FFD600"/>
<path d="M28.4427 25.187C30.3649 25.187 31.9166 26.7393 31.9166 28.6609C31.9166 30.5774 30.3649 32.1349 28.4427 32.1349C26.5262 32.1349 24.9688 30.5774 24.9688 28.6609C24.9688 26.7393 26.5262 25.187 28.4427 25.187Z" fill="#FFD600"/>
<path d="M16.8628 19.3975C18.1424 19.3975 19.1788 20.4339 19.1788 21.7076C19.1788 22.9872 18.1424 24.0236 16.8628 24.0236C15.5833 24.0236 14.5469 22.9872 14.5469 21.7076C14.5469 20.4339 15.5833 19.3975 16.8628 19.3975Z" fill="#FFD600"/>
<path d="M16.8628 19.3975C16.6613 19.3975 16.4691 19.431 16.2832 19.4797C17.2802 19.7379 18.0196 20.6348 18.0196 21.7082C18.0196 22.7863 17.2802 23.6837 16.2832 23.9419C16.4691 23.9906 16.6613 24.0242 16.8628 24.0242C18.1423 24.0242 19.1787 22.9878 19.1787 21.7082C19.1787 20.4339 18.1423 19.3975 16.8628 19.3975Z" fill="#D96EF3"/>
<path d="M28.4419 19.3975C28.2404 19.3975 28.0482 19.431 27.8623 19.4797C28.8593 19.7379 29.5987 20.6348 29.5987 21.7082C29.5987 22.7863 28.8593 23.6837 27.8623 23.9419C28.0482 23.9906 28.2404 24.0242 28.4419 24.0242C29.7214 24.0242 30.7578 22.9878 30.7578 21.7082C30.7578 20.4339 29.7214 19.3975 28.4419 19.3975Z" fill="#D96EF3"/>
<path d="M16.8626 25.187C18.7848 25.187 20.3365 26.7393 20.3365 28.6609C20.3365 30.5774 18.7848 32.1349 16.8626 32.1349C14.9461 32.1349 13.3887 30.5774 13.3887 28.6609C13.3887 26.7393 14.9461 25.187 16.8626 25.187Z" fill="#FFD600"/>
<path d="M16.8626 25.187C16.5621 25.187 16.2721 25.2293 15.9941 25.3005C17.4931 25.6861 18.5978 27.0398 18.5978 28.6609C18.5978 30.2775 17.4931 31.634 15.9941 32.0208C16.2721 32.0926 16.5621 32.1349 16.8626 32.1349C18.7849 32.1349 20.3366 30.5774 20.3366 28.6609C20.3366 26.7393 18.7849 25.187 16.8626 25.187Z" fill="#D96EF3"/>
<path d="M28.4427 25.187C28.1422 25.187 27.8521 25.2293 27.5742 25.3005C29.0732 25.6861 30.1779 27.0398 30.1779 28.6609C30.1779 30.2775 29.0732 31.634 27.5742 32.0208C27.8521 32.0926 28.1422 32.1349 28.4427 32.1349C30.3649 32.1349 31.9166 30.5774 31.9166 28.6609C31.9166 26.7393 30.3649 25.187 28.4427 25.187Z" fill="#D96EF3"/>
<path d="M20.3371 28.6609C20.3371 26.7392 18.7854 25.187 16.8632 25.187C14.9467 25.187 13.3893 26.7392 13.3893 28.6609C13.3893 30.5773 14.9467 32.1348 16.8632 32.1348C18.7854 32.1348 20.3371 30.5768 20.3371 28.6609ZM16.8632 24.0232C18.1428 24.0232 19.1791 22.9868 19.1791 21.7072C19.1791 20.4335 18.1428 19.3971 16.8632 19.3971C15.5836 19.3971 14.5472 20.4335 14.5472 21.7072C14.5472 22.9868 15.5836 24.0232 16.8632 24.0232ZM31.9169 28.6609C31.9169 26.7392 30.3652 25.187 28.443 25.187C26.5265 25.187 24.969 26.7392 24.969 28.6609C24.969 30.5773 26.5265 32.1348 28.443 32.1348C30.3652 32.1348 31.9169 30.5768 31.9169 28.6609ZM28.443 24.0232C29.7225 24.0232 30.7589 22.9868 30.7589 21.7072C30.7589 20.4335 29.7225 19.3971 28.443 19.3971C27.1634 19.3971 26.127 20.4335 26.127 21.7072C26.127 22.9868 27.1634 24.0232 28.443 24.0232ZM38.8647 12.4492V36.1877H6.44141V12.4492H38.8647Z" fill="#FFEE94"/>
<path d="M6.44107 36.1883H38.8644V12.4498H6.44107V36.1883ZM40.6014 10.707V37.9195H4.7041V10.707H18.5882H26.7056H40.6014Z" fill="#D96EF3"/>
<path d="M40.6012 38.5003H4.70399C4.38381 38.5003 4.125 38.2415 4.125 37.9213V10.7089C4.125 10.3893 4.38381 10.1299 4.70399 10.1299H40.6012C40.9214 10.1299 41.1802 10.3893 41.1802 10.7089V37.9213C41.1802 38.2415 40.9214 38.5003 40.6012 38.5003ZM5.28298 37.3423H40.0223V11.2879H5.28298V37.3423Z" fill="#666666"/>
<path d="M40.6012 11.2876H4.70399C4.38381 11.2876 4.125 11.0282 4.125 10.7086V6.07899C4.125 5.75939 4.38381 5.5 4.70399 5.5H40.6012C40.9214 5.5 41.1802 5.75939 41.1802 6.07899V10.7086C41.1802 11.0282 40.9214 11.2876 40.6012 11.2876ZM5.28298 10.1296H40.0223V6.65798H5.28298V10.1296Z" fill="#666666"/>
<path d="M26.7069 11.2872C26.3867 11.2872 26.1279 11.0279 26.1279 10.7083V8.97303C26.1279 8.65343 26.3867 8.39404 26.7069 8.39404C27.0271 8.39404 27.2859 8.65343 27.2859 8.97303V10.7083C27.2859 11.0279 27.0271 11.2872 26.7069 11.2872Z" fill="#666666"/>
<path d="M26.7077 9.55202H18.5897C18.2695 9.55202 18.0107 9.29263 18.0107 8.97303C18.0107 8.65343 18.2695 8.39404 18.5897 8.39404H26.7077C27.0279 8.39404 27.2867 8.65343 27.2867 8.97303C27.2867 9.29263 27.0279 9.55202 26.7077 9.55202Z" fill="#666666"/>
<path d="M18.5897 11.2872C18.2695 11.2872 18.0107 11.0279 18.0107 10.7083V8.97303C18.0107 8.65343 18.2695 8.39404 18.5897 8.39404C18.9099 8.39404 19.1687 8.65343 19.1687 8.97303V10.7083C19.1687 11.0279 18.9099 11.2872 18.5897 11.2872Z" fill="#666666"/>
<path d="M38.8635 36.7676H6.44129C6.12111 36.7676 5.8623 36.5088 5.8623 36.1886V12.4467C5.8623 12.1271 6.12111 11.8677 6.44129 11.8677H38.8635C39.1836 11.8677 39.4425 12.1271 39.4425 12.4467V36.1886C39.4425 36.5088 39.1836 36.7676 38.8635 36.7676ZM7.02028 35.6097H38.2845V13.0257H7.02028V35.6097Z" fill="#666666"/>
<path d="M16.8621 32.712C14.6272 32.712 12.8086 30.8934 12.8086 28.6585C12.8086 26.4236 14.6272 24.605 16.8621 24.605C19.097 24.605 20.9156 26.4236 20.9156 28.6585C20.9156 30.8934 19.097 32.712 16.8621 32.712ZM16.8621 25.763C15.2652 25.763 13.9666 27.0616 13.9666 28.6585C13.9666 30.2553 15.2652 31.554 16.8621 31.554C18.4589 31.554 19.7576 30.2553 19.7576 28.6585C19.7576 27.0616 18.4589 25.763 16.8621 25.763Z" fill="#666666"/>
<path d="M16.8621 24.6035C15.2659 24.6035 13.9678 23.3054 13.9678 21.7091C13.9678 20.114 15.2659 18.8159 16.8621 18.8159C18.4584 18.8159 19.7565 20.114 19.7565 21.7091C19.7565 23.3054 18.4584 24.6035 16.8621 24.6035ZM16.8621 19.9739C15.9051 19.9739 15.1257 20.7521 15.1257 21.7091C15.1257 22.6662 15.9051 23.4455 16.8621 23.4455C17.8192 23.4455 18.5985 22.6662 18.5985 21.7091C18.5985 20.7521 17.8192 19.9739 16.8621 19.9739Z" fill="#666666"/>
<path d="M16.8622 19.9722C16.542 19.9722 16.2832 19.7128 16.2832 19.3932V15.9193C16.2832 15.5997 16.542 15.3403 16.8622 15.3403C17.1824 15.3403 17.4412 15.5997 17.4412 15.9193V19.3932C17.4412 19.7128 17.1824 19.9722 16.8622 19.9722Z" fill="#666666"/>
<path d="M18.0199 16.4983H15.704C15.3838 16.4983 15.125 16.2389 15.125 15.9193C15.125 15.5997 15.3838 15.3403 15.704 15.3403H18.0199C18.3401 15.3403 18.5989 15.5997 18.5989 15.9193C18.5989 16.2389 18.3401 16.4983 18.0199 16.4983Z" fill="#666666"/>
<path d="M16.8622 25.7624C16.542 25.7624 16.2832 25.5036 16.2832 25.1834V24.0243C16.2832 23.7041 16.542 23.4453 16.8622 23.4453C17.1824 23.4453 17.4412 23.7041 17.4412 24.0243V25.1834C17.4412 25.5036 17.1824 25.7624 16.8622 25.7624Z" fill="#666666"/>
<path d="M16.8622 33.2918C16.542 33.2918 16.2832 33.033 16.2832 32.7128V32.1327C16.2832 31.8125 16.542 31.5537 16.8622 31.5537C17.1824 31.5537 17.4412 31.8125 17.4412 32.1327V32.7128C17.4412 33.033 17.1824 33.2918 16.8622 33.2918Z" fill="#666666"/>
<path d="M28.4422 32.712C26.2073 32.712 24.3887 30.8934 24.3887 28.6585C24.3887 26.4236 26.2073 24.605 28.4422 24.605C30.6771 24.605 32.4957 26.4236 32.4957 28.6585C32.4957 30.8934 30.6771 32.712 28.4422 32.712ZM28.4422 25.763C26.8453 25.763 25.5466 27.0616 25.5466 28.6585C25.5466 30.2553 26.8453 31.554 28.4422 31.554C30.039 31.554 31.3377 30.2553 31.3377 28.6585C31.3377 27.0616 30.039 25.763 28.4422 25.763Z" fill="#666666"/>
<path d="M28.4422 24.6035C26.8459 24.6035 25.5479 23.3054 25.5479 21.7091C25.5479 20.114 26.8459 18.8159 28.4422 18.8159C30.0385 18.8159 31.3366 20.114 31.3366 21.7091C31.3366 23.3054 30.0385 24.6035 28.4422 24.6035ZM28.4422 19.9739C27.4851 19.9739 26.7058 20.7521 26.7058 21.7091C26.7058 22.6662 27.4851 23.4455 28.4422 23.4455C29.3993 23.4455 30.1786 22.6662 30.1786 21.7091C30.1786 20.7521 29.3993 19.9739 28.4422 19.9739Z" fill="#666666"/>
<path d="M28.4423 19.9722C28.1221 19.9722 27.8633 19.7128 27.8633 19.3932V15.9193C27.8633 15.5997 28.1221 15.3403 28.4423 15.3403C28.7624 15.3403 29.0213 15.5997 29.0213 15.9193V19.3932C29.0213 19.7128 28.7624 19.9722 28.4423 19.9722Z" fill="#666666"/>
<path d="M29.6 16.4983H27.2841C26.9639 16.4983 26.7051 16.2389 26.7051 15.9193C26.7051 15.5997 26.9639 15.3403 27.2841 15.3403H29.6C29.9202 15.3403 30.179 15.5997 30.179 15.9193C30.179 16.2389 29.9202 16.4983 29.6 16.4983Z" fill="#666666"/>
<path d="M28.4423 25.7624C28.1221 25.7624 27.8633 25.5036 27.8633 25.1834V24.0243C27.8633 23.7041 28.1221 23.4453 28.4423 23.4453C28.7624 23.4453 29.0213 23.7041 29.0213 24.0243V25.1834C29.0213 25.5036 28.7624 25.7624 28.4423 25.7624Z" fill="#666666"/>
<path d="M28.4423 33.2918C28.1221 33.2918 27.8633 33.033 27.8633 32.7128V32.1327C27.8633 31.8125 28.1221 31.5537 28.4423 31.5537C28.7624 31.5537 29.0213 31.8125 29.0213 32.1327V32.7128C29.0213 33.033 28.7624 33.2918 28.4423 33.2918Z" fill="#666666"/>
</svg>
